<svg width="178" height="181" viewBox="0 0 178 181" fill="none" xmlns="http://www.w3.org/2000/svg">
<path d="M57.9424 176.152C70.4339 183.681 79.3453 180.555 82.757 174.517C89.3546 162.842 111.291 138.965 146.055 130.895C192.097 120.207 182.482 91.8281 154.178 76.9361C125.874 62.0441 104.71 41.4383 107.913 19.033C111.117 -3.3722 79.38 -11.096 65.2663 32.0041C56.1458 59.857 39.8011 67.3189 29.3784 69.1126C19.5552 70.8031 8.8098 72.9241 3.56985 81.4032C-2.7885 91.6912 -0.56974 102.098 26.0512 109.236C63.7757 119.351 29.9435 159.275 57.9424 176.152Z" fill="#E0E1F3"/>
<path d="M25.4862 127.333C26.0148 127.031 31.9814 124.505 61.6642 138.343C61.5777 138.461 61.5409 138.516 61.5409 138.516C61.5409 138.516 30.6828 148.908 24.6367 136.106C22.8313 132.295 23.3486 129.67 25.4346 127.363L25.4862 127.333Z" fill="#3392FB"/>
<path d="M125.252 132.57C118.803 137.992 108.69 141.927 98.9316 136.694C100.474 135.709 102.066 134.694 103.691 133.644C113.491 127.347 122.123 131.56 125.252 132.57Z" fill="#3392FB"/>
<path d="M136.804 65.8918C143.392 120.756 127.735 130.713 125.991 132.225C125.487 132.663 125.282 132.631 124.519 132.435L124.506 132.442C121.277 131.586 113.491 127.347 103.691 133.643C102.067 134.693 100.473 135.708 98.9318 136.693C88.9345 143.034 80.8613 147.502 75.0451 144.908C70.1116 142.392 65.6634 140.214 61.6643 138.343C31.9816 124.505 26.015 127.031 25.4863 127.333C26.0997 126.999 31.7267 123.88 39.3034 118.395C39.3292 118.38 39.3549 118.366 39.3605 118.345C49.4877 111.006 63.0502 99.4401 72.7989 84.562C79.4354 74.4449 85.9278 48.7968 98.4546 43.7643C124.2 34.1602 135.735 54.7322 136.804 65.8918Z" fill="#002E61"/>
<path d="M108.337 64.9292C109.137 62.819 109.059 60.8335 108.163 60.4945C107.268 60.1554 105.895 61.5912 105.095 63.7015C104.296 65.8117 104.374 67.7972 105.269 68.1362C106.165 68.4752 107.538 67.0394 108.337 64.9292Z" fill="#93C6FF"/>
<path d="M124.729 67.6216C125.295 65.4374 125.003 63.4719 124.077 63.2316C123.15 62.9913 121.94 64.5672 121.373 66.7515C120.807 68.9357 121.099 70.9012 122.026 71.1415C122.952 71.3818 124.162 69.8059 124.729 67.6216Z" fill="#93C6FF"/>
<path d="M114.75 75.6415C114.616 75.6414 114.486 75.5954 114.381 75.511C114.277 75.4267 114.204 75.3092 114.176 75.178C114.071 74.7029 113.604 73.2972 112.864 73.0883C112.124 72.8793 110.672 73.6905 110.084 74.116C109.958 74.2076 109.8 74.2452 109.646 74.2205C109.492 74.1958 109.354 74.1109 109.262 73.9845C109.171 73.8581 109.133 73.7004 109.158 73.5463C109.182 73.3921 109.267 73.2541 109.394 73.1625C109.625 72.9949 111.699 71.5364 113.183 71.9553C114.732 72.3922 115.27 74.6694 115.326 74.9276C115.344 75.0136 115.344 75.1027 115.323 75.1883C115.303 75.2739 115.264 75.354 115.209 75.4224C115.154 75.4909 115.084 75.5462 115.004 75.5841C114.925 75.622 114.838 75.6416 114.75 75.6415H114.75Z" fill="#93C6FF"/>
</svg>
