<svg width="220" height="163" viewBox="0 0 220 163" fill="none" xmlns="http://www.w3.org/2000/svg">
<path d="M64.2403 26.4292C64.2403 26.4292 89.0285 45.2401 126.713 10.0671C160.18 -21.1691 187.507 28.1147 187.698 51.7158C187.946 82.2884 154.231 106.751 170.593 126.832C186.955 146.913 138.145 180.072 111.839 151.375C79.1147 115.676 70.2494 144.681 51.597 144.681C38.2099 144.681 10.7249 111.418 29.2852 86.6708C44.9035 65.8465 36.3856 58.9353 32.2607 51.7158C26.3104 41.3037 40.4412 13.0422 64.2403 26.4292Z" fill="#E0E1F3"/>
<path d="M163.756 67.9983C165.088 68.4934 166.544 68.5263 167.93 68.2083C173.734 66.8761 193.691 63.3486 190.223 78.8138C189.468 81.8822 177.78 99.0659 194.426 105.339C195.645 105.804 196.935 106.058 198.241 106.09C203.366 106.195 213.522 104.986 217.772 100.659C222.907 95.4316 217.298 97.9104 217.298 97.9104C217.298 97.9104 197.776 106.429 190.881 97.3913C190.114 96.3857 189.625 94.9251 189.485 93.6678C189.243 91.4878 190.211 88.607 191.482 86.0993C193.203 82.7052 201.466 67.4372 183.527 62.9895C179.394 62.0054 173.392 61.1213 165.653 64.3797C161.139 66.2802 162.139 67.3974 163.756 67.9983Z" fill="#B3B3B3"/>
<path d="M167.75 62.2984L162.554 64.243C160.761 64.9143 159.851 66.9125 160.522 68.7061L160.78 69.3942C161.451 71.1878 163.449 72.0977 165.243 71.4264L170.439 69.4818C172.232 68.8105 173.142 66.8123 172.471 65.0187L172.213 64.3306C171.542 62.537 169.544 61.6272 167.75 62.2984Z" fill="#002E61"/>
<path d="M135.857 67.9252L118.721 74.3384C117.825 74.6741 117.37 75.6732 117.705 76.57L117.773 76.7503C118.109 77.6471 119.108 78.102 120.004 77.7664L137.14 71.3532C138.037 71.0175 138.492 70.0185 138.156 69.1217L138.089 68.9413C137.753 68.0445 136.754 67.5896 135.857 67.9252Z" fill="#B3B3B3"/>
<path d="M140.64 80.7034L123.505 87.1166C122.608 87.4523 122.153 88.4514 122.489 89.3482L122.556 89.5285C122.892 90.4253 123.891 90.8802 124.788 90.5446L141.923 84.1314C142.82 83.7957 143.275 82.7966 142.939 81.8998L142.872 81.7195C142.536 80.8227 141.537 80.3678 140.64 80.7034Z" fill="#B3B3B3"/>
<path d="M156.46 59.2051L142.572 64.4029C140.778 65.0742 139.868 67.0723 140.54 68.8659L145.281 81.5352C145.953 83.3288 147.951 84.2386 149.744 83.5673L163.632 78.3695C165.426 77.6982 166.336 75.7001 165.665 73.9065L160.923 61.2373C160.252 59.4437 158.254 58.5338 156.46 59.2051Z" fill="#014694"/>
<path d="M144.007 62.5289L130.119 67.7267C128.325 68.398 127.415 70.3961 128.087 72.1897L133.743 87.3046C134.415 89.0982 136.413 90.008 138.207 89.3367L152.095 84.139C153.888 83.4677 154.798 81.4695 154.127 79.6759L148.47 64.5611C147.799 62.7675 145.8 61.8576 144.007 62.5289Z" fill="#015EC7"/>
<path d="M146.18 59.4614L146.071 59.5022C144.876 59.9497 144.269 61.2818 144.717 62.4776L152.641 83.6519C153.089 84.8476 154.421 85.4542 155.617 85.0067L155.726 84.9659C156.921 84.5184 157.528 83.1863 157.08 81.9905L149.156 60.8162C148.708 59.6205 147.376 59.0139 146.18 59.4614Z" fill="#002E61"/>
<path d="M4.56846 72.9995C4.56846 72.9995 32.4604 65.1611 28.411 83.22C27.7077 86.0774 17.5848 100.79 29.6428 107.854C32.2319 109.371 35.2198 110.043 38.2203 110.027C43.6001 109.999 52.1286 108.964 55.96 105.064C61.0948 99.8372 55.4851 102.316 55.4851 102.316C55.4851 102.316 39.4664 108.905 31.2253 103.653C28.4113 101.859 27.1358 98.3868 27.9 95.1385C28.2905 93.525 28.8853 91.9679 29.6698 90.5049C31.4621 87.148 39.6533 71.8428 21.7142 67.395C17.5818 66.4109 11.5797 65.5269 3.84061 68.7853C-3.89849 72.0437 4.56846 72.9995 4.56846 72.9995Z" fill="#B3B3B3"/>
<path d="M59.711 98.2748L54.5152 100.219C52.7216 100.891 51.8118 102.889 52.483 104.682L52.7406 105.371C53.4119 107.164 55.41 108.074 57.2036 107.403L62.3995 105.458C64.1931 104.787 65.1029 102.789 64.4316 100.995L64.174 100.307C63.5028 98.5133 61.5046 97.6035 59.711 98.2748Z" fill="#002E61"/>
<path d="M68.4891 89.7263L60.7886 92.6083C58.995 93.2796 58.0852 95.2777 58.7565 97.0713L62.4696 106.993C63.1409 108.786 65.1391 109.696 66.9327 109.025L74.6331 106.143C76.4267 105.471 77.3366 103.473 76.6653 101.68L72.9521 91.7584C72.2809 89.9648 70.2827 89.055 68.4891 89.7263Z" fill="#014694"/>
<path d="M81.3093 82.0878L69.8257 86.3857C68.0321 87.057 67.1223 89.0551 67.7936 90.8487L73.4505 105.964C74.1218 107.757 76.1199 108.667 77.9135 107.996L89.3971 103.698C91.1907 103.027 92.1006 101.028 91.4293 99.2348L85.7724 84.1199C85.1011 82.3263 83.1029 81.4165 81.3093 82.0878Z" fill="#015EC7"/>
<path d="M83.7408 78.9577L83.6319 78.9984C82.4361 79.4459 81.8296 80.778 82.2771 81.9738L90.2019 103.148C90.6494 104.344 91.9815 104.95 93.1772 104.503L93.2861 104.462C94.4819 104.015 95.0884 102.682 94.6409 101.487L86.7161 80.3124C86.2686 79.1167 84.9365 78.5101 83.7408 78.9577Z" fill="#002E61"/>
<path d="M113.064 65.4677C112.651 65.4218 112.271 65.2173 112.005 64.8971C111.739 64.577 111.608 64.1662 111.639 63.7513L112.496 48.1008C112.547 47.166 113.337 46.4557 114.233 46.5383L115.481 46.6539C116.377 46.7366 117.018 47.5786 116.893 48.5069L114.787 64.0418C114.739 64.4556 114.533 64.8348 114.212 65.1004C113.891 65.366 113.48 65.4976 113.064 65.4677Z" fill="#002E61"/>
<path d="M105.667 66.8172C105.538 66.855 105.403 66.8671 105.27 66.8528C105.137 66.8385 105.008 66.798 104.89 66.7338C104.772 66.6696 104.668 66.5828 104.584 66.4784C104.5 66.374 104.437 66.2541 104.4 66.1254L101.34 56.3901C101.251 56.1132 101.275 55.8123 101.408 55.5535C101.54 55.2946 101.77 55.099 102.047 55.0094L102.839 54.7703C102.975 54.7307 103.118 54.7196 103.258 54.7379C103.399 54.7561 103.534 54.8033 103.655 54.8764C103.776 54.9495 103.881 55.0469 103.963 55.1625C104.044 55.2782 104.101 55.4095 104.13 55.5482L106.398 65.5228C106.461 65.7909 106.421 66.073 106.285 66.3128C106.15 66.5527 105.929 66.7328 105.667 66.8172Z" fill="#002E61"/>
<path d="M101.537 72.4313C100.989 73.1106 99.8867 73.1025 99.0379 72.4129L83.9689 60.1698C83.0688 59.4385 82.8032 58.2279 83.3849 57.5078L84.1955 56.5036C84.7771 55.7832 85.9717 55.8422 86.8234 56.6335L101.082 69.881C101.885 70.627 102.086 71.752 101.537 72.4313Z" fill="#002E61"/>
<path d="M108.503 104.054C108.891 104.204 109.206 104.499 109.381 104.876C109.556 105.254 109.578 105.684 109.442 106.078L104.617 120.99C104.328 121.881 103.384 122.365 102.539 122.057L101.361 121.627C100.516 121.318 100.11 120.34 100.469 119.474L106.472 104.993C106.624 104.605 106.92 104.291 107.299 104.116C107.677 103.941 108.108 103.919 108.503 104.054Z" fill="#002E61"/>
<path d="M116.001 104.639C116.135 104.635 116.268 104.658 116.394 104.706C116.519 104.754 116.633 104.826 116.731 104.918C116.828 105.01 116.906 105.121 116.961 105.243C117.016 105.365 117.046 105.497 117.05 105.631L117.522 115.825C117.537 116.116 117.436 116.4 117.242 116.617C117.048 116.833 116.776 116.964 116.485 116.98L115.658 117.009C115.517 117.012 115.376 116.986 115.245 116.933C115.114 116.879 114.995 116.799 114.896 116.698C114.798 116.596 114.721 116.475 114.672 116.342C114.622 116.21 114.601 116.068 114.609 115.927L114.964 105.704C114.972 105.429 115.082 105.166 115.274 104.969C115.467 104.771 115.726 104.654 116.001 104.639Z" fill="#002E61"/>
<path d="M121.426 100.266C122.13 99.7487 123.193 100.038 123.838 100.922L135.28 116.607C135.964 117.544 135.912 118.782 135.165 119.33L134.125 120.093C133.378 120.642 132.238 120.279 131.617 119.297L121.214 102.847C120.629 101.921 120.722 100.782 121.426 100.266Z" fill="#002E61"/>
</svg>
